<svg width="58" height="56" viewBox="0 0 58 56" fill="none" xmlns="http://www.w3.org/2000/svg">
<g clip-path="url(#clip0_194_763)">
<path d="M4.98729 1.59973H53.0038C55.1485 1.59973 56.8896 3.31554 56.8896 5.42922V37.582C56.8896 39.6956 55.1485 41.4115 53.0038 41.4115H4.98729C2.84257 41.4115 1.10156 39.6956 1.10156 37.582V5.42922C1.10997 3.31554 2.85098 1.59973 4.98729 1.59973Z" fill="white"/>
<path d="M1.41309 30.1882V38.2202C1.41309 39.6542 2.59058 40.8064 4.03722 40.8064H53.963C55.418 40.8064 56.5871 39.6459 56.5871 38.2202V30.1882H1.41309Z" fill="#00B1FF"/>
<path d="M50.9435 30.1882V38.2202C50.9435 39.6542 49.766 40.8064 48.3193 40.8064H53.9629C55.4179 40.8064 56.587 39.6459 56.587 38.2202V30.1882H50.9435Z" fill="#00B1FF"/>
<path d="M53.9629 42.1989H4.03712C1.80829 42.1989 0 40.4168 0 38.2202V4.79094C0 2.59438 1.80829 0.812256 4.03712 0.812256H53.9629C56.1917 0.812256 58 2.59438 58 4.79094V38.2202C58 40.4168 56.1917 42.1989 53.9629 42.1989ZM4.03712 3.58905C3.36427 3.58905 2.81758 4.12783 2.81758 4.79094V38.2202C2.81758 38.8833 3.36427 39.4221 4.03712 39.4221H53.9629C54.6357 39.4221 55.1824 38.8833 55.1824 38.2202V4.79094C55.1824 4.12783 54.6357 3.58905 53.9629 3.58905H4.03712Z" fill="#0757A0"/>
<path d="M53.9629 42.199H4.03712C1.80829 42.199 0 40.4169 0 38.2203V28.7958H58V38.2203C58 40.4169 56.1917 42.199 53.9629 42.199ZM2.81758 31.5726V38.212C2.81758 38.8751 3.36427 39.4139 4.03712 39.4139H53.9629C54.6357 39.4139 55.1824 38.8751 55.1824 38.212V31.5726H2.81758Z" fill="#0757A0"/>
<path d="M41.1448 56H16.8632C14.6596 56 12.8682 54.2344 12.8682 52.0627V51.8141C12.8682 49.9905 14.1634 48.4073 16.0138 47.968C19.5883 47.1225 20.8499 42.9201 21.2872 40.4914L21.4975 39.3475H36.5106L36.7208 40.4914C37.1582 42.9201 38.4282 47.1225 41.9943 47.968C43.8447 48.4073 45.1399 49.9905 45.1399 51.8141V52.0627C45.1399 54.2344 43.3484 56 41.1448 56ZM23.8189 42.1243C23.0703 45.2575 21.2116 49.5926 16.6698 50.6702C16.081 50.8111 15.6857 51.267 15.6857 51.8141V52.0627C15.6857 52.701 16.2072 53.2149 16.8548 53.2149H41.1364C41.7841 53.2149 42.3055 52.701 42.3055 52.0627V51.8141C42.3055 51.2753 41.9102 50.8111 41.3215 50.6702C36.7797 49.5926 34.9209 45.2575 34.1724 42.1243H23.8189Z" fill="#0757A0"/>
<path d="M23.8192 42.1244C23.0706 45.2576 21.2118 49.5927 16.6701 50.6703C16.0813 50.8112 15.686 51.2671 15.686 51.8141V52.0628C15.686 52.7011 16.2075 53.215 16.8551 53.215H41.1367C41.7844 53.215 42.3058 52.7011 42.3058 52.0628V51.8141C42.3058 51.2754 41.9105 50.8112 41.3218 50.6703C36.78 49.5927 34.9212 45.2576 34.1727 42.1244H23.8192Z" fill="white"/>
<path d="M44.2739 7.85791H16.8467V24.3777H44.2739V7.85791Z" fill="#00B1FF"/>
<path d="M30.6065 18.1528L16.8467 7.85791H44.2739L30.6065 18.1528Z" fill="#0757A0"/>
<path d="M42.3733 15.7987C46.8001 15.7987 50.3887 12.262 50.3887 7.89935C50.3887 3.53666 46.8001 0 42.3733 0C37.9465 0 34.3579 3.53666 34.3579 7.89935C34.3579 12.262 37.9465 15.7987 42.3733 15.7987Z" fill="white"/>
<path d="M42.3731 2.44519C39.32 2.44519 36.8389 4.89042 36.8389 7.89931C36.8389 10.9082 39.32 13.3534 42.3731 13.3534C45.4262 13.3534 47.9073 10.9082 47.9073 7.89931C47.9073 4.89042 45.4262 2.44519 42.3731 2.44519Z" fill="#00B1FF"/>
<path d="M40.7919 9.91358H41.7676V5.6365H40.7583V4.54236H42.9787V9.91358H43.8787V10.9331H40.7919V9.91358Z" fill="white"/>
<path d="M30.0683 38.0876C31.6755 38.0876 32.9784 36.8036 32.9784 35.2197C32.9784 33.6357 31.6755 32.3517 30.0683 32.3517C28.4611 32.3517 27.1582 33.6357 27.1582 35.2197C27.1582 36.8036 28.4611 38.0876 30.0683 38.0876Z" fill="#0757A0"/>
</g>
<defs>
<clipPath id="clip0_194_763">
<rect width="58" height="56" fill="white"/>
</clipPath>
</defs>
</svg>
