<svg width="54" height="54" viewBox="0 0 54 54" fill="none" xmlns="http://www.w3.org/2000/svg">
<g clip-path="url(#clip0_172_136)">
<path d="M26.9959 1.23083C12.7695 1.23083 1.23096 12.7694 1.23096 26.9958C1.23096 41.2222 12.7695 52.7607 26.9959 52.7607C41.2223 52.7607 52.7608 41.2222 52.7608 26.9958C52.7608 12.7694 41.2307 1.23083 26.9959 1.23083ZM26.9959 46.2797C16.3449 46.2797 7.71196 37.6467 7.71196 26.9958C7.71196 16.3448 16.3449 7.71184 26.9959 7.71184C37.6468 7.71184 46.2798 16.3448 46.2798 26.9958C46.2798 37.6467 37.6468 46.2797 26.9959 46.2797Z" fill="#00B1FF"/>
<path d="M26.9958 46.2798C37.6461 46.2798 46.2798 37.6461 46.2798 26.9958C46.2798 16.3456 37.6461 7.71191 26.9958 7.71191C16.3456 7.71191 7.71191 16.3456 7.71191 26.9958C7.71191 37.6461 16.3456 46.2798 26.9958 46.2798Z" fill="white"/>
<path d="M26.9957 7.71191C25.9574 7.71191 24.9359 7.79565 23.9395 7.95474C33.1334 9.42009 40.1671 17.3832 40.1671 26.9958C40.1671 36.6085 33.1334 44.5716 23.9395 46.0369C24.9359 46.196 25.9574 46.2798 26.9957 46.2798C37.6467 46.2798 46.2797 37.6468 46.2797 26.9958C46.2797 16.3449 37.6467 7.71191 26.9957 7.71191Z" fill="#00B1FF"/>
<path d="M26.9958 54C12.1079 54 0 41.8837 0 26.9958C0 12.1079 12.1079 0 26.9958 0C41.8837 0 53.9916 12.1079 53.9916 26.9958C53.9916 41.8837 41.8837 53.9916 26.9958 53.9916V54ZM26.9958 2.47015C13.4728 2.47015 2.47015 13.4728 2.47015 26.9958C2.47015 40.5188 13.4728 51.5215 26.9958 51.5215C40.5188 51.5215 51.5215 40.5188 51.5215 26.9958C51.5215 13.4728 40.5272 2.47015 26.9958 2.47015ZM26.9958 47.519C15.6834 47.519 6.481 38.3166 6.481 27.0042C6.481 15.6917 15.6834 6.481 26.9958 6.481C38.3083 6.481 47.5106 15.6834 47.5106 26.9958C47.5106 38.3083 38.3083 47.5106 26.9958 47.5106V47.519ZM26.9958 8.95116C17.0482 8.95116 8.95116 17.0482 8.95116 26.9958C8.95116 36.9434 17.0482 45.0405 26.9958 45.0405C36.9434 45.0405 45.0405 36.9434 45.0405 26.9958C45.0405 17.0482 36.9434 8.95116 26.9958 8.95116Z" fill="#0757A0"/>
<path d="M26.996 31.6179C24.7351 31.6179 22.9014 29.7757 22.9014 27.5233C22.9014 25.2709 24.7435 23.4287 26.996 23.4287C29.2484 23.4287 31.0905 25.2709 31.0905 27.5233C31.0905 29.7757 29.2484 31.6179 26.996 31.6179ZM26.996 25.8905C26.1 25.8905 25.3715 26.619 25.3715 27.5149C25.3715 28.4109 26.1 29.1394 26.996 29.1394C27.8919 29.1394 28.6204 28.4109 28.6204 27.5149C28.6204 26.619 27.8919 25.8905 26.996 25.8905Z" fill="#0757A0"/>
<path d="M26.996 25.6309C26.3178 25.6309 25.7651 25.0783 25.7651 24.4V14.511C25.7651 13.8328 26.3178 13.2802 26.996 13.2802C27.6743 13.2802 28.2269 13.8328 28.2269 14.511V24.4C28.2269 25.0783 27.6743 25.6309 26.996 25.6309Z" fill="#0757A0"/>
<path d="M21.3352 35.5869C21.017 35.5869 20.7072 35.4697 20.4643 35.2268C19.9787 34.7412 19.9787 33.9625 20.4643 33.4768L24.718 29.2231C25.2037 28.7375 25.9824 28.7375 26.4681 29.2231C26.9537 29.7088 26.9537 30.4875 26.4681 30.9732L22.2144 35.2268C21.9716 35.4697 21.6534 35.5869 21.3435 35.5869H21.3352Z" fill="#0757A0"/>
</g>
<defs>
<clipPath id="clip0_172_136">
<rect width="54" height="54" fill="white"/>
</clipPath>
</defs>
</svg>
