<svg width="59" height="60" viewBox="0 0 59 60" fill="none" xmlns="http://www.w3.org/2000/svg">
<g clip-path="url(#clip0_172_156)">
<path d="M47.0737 48.3672C45.023 48.3672 43.3589 46.7149 43.3589 44.6788V5.18223C43.3589 3.14607 45.023 1.49377 47.0737 1.49377C49.1244 1.49377 50.7885 3.14607 50.7885 5.18223V44.6788C50.7885 46.7149 49.1244 48.3672 47.0737 48.3672Z" fill="#0757A0"/>
<path d="M47.0739 1.49377C46.3427 1.49377 45.6619 1.71074 45.082 2.06957C46.1158 2.72882 46.805 3.87208 46.805 5.18223V44.6788C46.805 45.9889 46.1158 47.1322 45.082 47.7914C45.6619 48.1586 46.3427 48.3672 47.0739 48.3672C49.1246 48.3672 50.7887 46.7149 50.7887 44.6788V5.18223C50.7887 3.14607 49.1246 1.49377 47.0739 1.49377Z" fill="#00B1FF"/>
<path d="M14.3213 11.7496C7.24471 11.7496 1.50439 17.4492 1.50439 24.4756C1.50439 31.5021 7.24471 37.2017 14.3213 37.2017H18.9775V11.7496H14.3213Z" fill="#0757A0"/>
<path d="M14.3213 11.7497C7.24471 11.7497 1.50439 17.4493 1.50439 24.4757C1.50439 25.5772 1.64727 26.6454 1.90781 27.6551C3.32818 22.1641 8.34571 18.1085 14.3213 18.1085H18.9775V11.7413H14.3213V11.7497Z" fill="#00B1FF"/>
<path d="M47.0737 49.8609C44.1994 49.8609 41.8545 47.5327 41.8545 44.6787V5.1822C41.8545 2.32823 44.1994 0 47.0737 0C49.9481 0 52.293 2.32823 52.293 5.1822V44.6787C52.293 47.5327 49.9481 49.8609 47.0737 49.8609ZM47.0737 2.97914C45.8551 2.97914 44.8549 3.96384 44.8549 5.1822V44.6787C44.8549 45.8887 45.8467 46.8818 47.0737 46.8818C48.3008 46.8818 49.2925 45.8971 49.2925 44.6787V5.1822C49.2925 3.97218 48.3008 2.97914 47.0737 2.97914Z" fill="#0757A0"/>
<path d="M18.9775 38.6954H14.3214C6.42108 38.6954 0 32.3199 0 24.4757C0 16.6315 6.42108 10.2643 14.3214 10.2643H18.9775C19.8095 10.2643 20.4819 10.9319 20.4819 11.758V37.21C20.4819 38.0362 19.8095 38.7038 18.9775 38.7038V38.6954ZM14.3214 13.2434C8.08519 13.2434 3.00883 18.2838 3.00883 24.484C3.00883 30.6843 8.08519 35.7246 14.3214 35.7246H17.4731V13.2434H14.3214Z" fill="#0757A0"/>
<path d="M43.3592 45.1962C42.7961 45.1962 42.2582 44.8791 42.0061 44.3533C40.7117 41.6829 37.9046 38.5536 31.8365 38.6955H18.9776C18.1455 38.6955 17.4731 38.0279 17.4731 37.2017V11.7497C17.4731 10.9236 18.1455 10.256 18.9776 10.256H31.7945C31.7945 10.256 31.8197 10.256 31.8365 10.256C37.913 10.4062 40.7202 7.26848 42.0061 4.5981C42.3086 3.97223 43.0062 3.63844 43.6954 3.78864C44.3761 3.93885 44.8636 4.54803 44.8636 5.24066V43.6941C44.8636 44.3867 44.3761 44.9959 43.6954 45.1461C43.5861 45.1711 43.4684 45.1795 43.3592 45.1795V45.1962ZM32.3072 35.708C36.8204 35.708 39.8545 37.2935 41.8632 39.1628V9.78864C39.7872 11.7247 36.5935 13.3603 31.7777 13.2351H20.482V35.708H31.8029C31.971 35.708 32.1475 35.708 32.3156 35.708H32.3072Z" fill="#0757A0"/>
<path d="M32.3071 35.7079C36.8204 35.7079 39.8544 37.2934 41.8631 39.1627V9.78857C39.7872 11.7246 36.5935 13.3602 31.7777 13.235H20.4819V35.7079H31.8029C31.971 35.7079 32.1475 35.7079 32.3156 35.7079H32.3071Z" fill="white"/>
<path d="M24.2388 60H12.3716C11.5396 60 10.8672 59.3324 10.8672 58.5063V37.0598C10.8672 36.6259 11.0605 36.2086 11.3883 35.9249C11.7245 35.6412 12.1615 35.516 12.5901 35.5828C13.1448 35.6662 13.7247 35.708 14.3131 35.708H26.7938C27.2225 35.708 27.6343 35.8915 27.92 36.2086C28.2058 36.5258 28.3403 36.9513 28.2898 37.3769L25.7349 58.6732C25.6424 59.4242 25.0037 59.9833 24.2472 59.9833L24.2388 60ZM13.8676 57.0125H22.9025L25.1045 38.6954H14.3131C14.1618 38.6954 14.0105 38.6954 13.8676 38.6954V57.0209V57.0125Z" fill="#0757A0"/>
<path d="M24.2388 60H12.3716C11.5396 60 10.8672 59.3324 10.8672 58.5063V37.0598C10.8672 36.6259 11.0605 36.2086 11.3883 35.9249C11.7245 35.6412 12.1615 35.516 12.5901 35.5828C13.1448 35.6662 13.7247 35.708 14.3131 35.708H26.7938C27.2225 35.708 27.6343 35.8915 27.92 36.2086C28.2058 36.5258 28.3403 36.9513 28.2898 37.3769L25.7349 58.6732C25.6424 59.4242 25.0037 59.9833 24.2472 59.9833L24.2388 60Z" fill="#0757A0"/>
<path d="M13.8677 57.0125H22.9026L25.1046 38.6954H14.3131C14.1618 38.6954 14.0106 38.6954 13.8677 38.6954V57.0209V57.0125Z" fill="white"/>
<path d="M49.4526 34.5981V16.1725L51.1672 16.4145C55.63 17.0487 59.0002 20.9041 59.0002 25.3853C59.0002 29.8665 55.63 33.7219 51.1672 34.3561L49.4526 34.5981ZM52.4531 19.8776V30.8929C54.5542 29.9166 55.9914 27.7803 55.9914 25.3853C55.9914 22.9903 54.5542 20.8623 52.4531 19.8776Z" fill="#0757A0"/>
<path d="M52.4526 19.8776V30.8929C54.5538 29.9165 55.991 27.7802 55.991 25.3852C55.991 22.9902 54.5538 20.8623 52.4526 19.8776Z" fill="white"/>
<path d="M31.2063 15.8721H23.2808V18.8512H31.2063V15.8721Z" fill="#0757A0"/>
<path d="M34.963 15.8721H32.8618V18.8512H34.963V15.8721Z" fill="#0757A0"/>
</g>
<defs>
<clipPath id="clip0_172_156">
<rect width="59" height="60" fill="white"/>
</clipPath>
</defs>
</svg>
