<svg width="48" height="60" viewBox="0 0 48 60" fill="none" xmlns="http://www.w3.org/2000/svg">
<g clip-path="url(#clip0_172_172)">
<path d="M29.3494 1.59117L24.4862 3.88105L19.2904 1.49856C17.1489 0.513576 14.8453 2.48355 15.5108 4.7145L17.0294 9.79097H31.67L33.1631 4.79869C33.8371 2.55932 31.4994 0.589344 29.3579 1.59959L29.3494 1.59117Z" fill="#0757A0"/>
<path d="M29.3496 1.59119L27.7797 2.33204C28.3087 2.97186 28.5561 3.85582 28.2831 4.79029L26.79 9.78258H31.6702L33.1633 4.79029C33.8373 2.55092 31.4996 0.580948 29.3581 1.59119H29.3496Z" fill="#00B1FF"/>
<path d="M46.7375 43.7688C46.7375 56.1611 36.5591 58.7625 24.0002 58.7625C11.4414 58.7625 1.25439 56.1611 1.25439 43.7688C1.25439 31.3765 11.4329 16.9048 23.9917 16.9048C36.5505 16.9048 46.729 31.3765 46.729 43.7688H46.7375Z" fill="#0757A0"/>
<path d="M23.9998 16.9048C22.3276 16.9048 20.6895 17.1658 19.1196 17.6456C29.3322 20.7353 36.9853 33.0266 36.9853 43.7688C36.9853 54.5111 29.3407 57.887 19.1196 58.6026C20.6895 58.712 22.3276 58.7625 23.9998 58.7625C36.5587 58.7625 46.7371 56.1696 46.7371 43.7688C46.7371 31.3681 36.5587 16.9048 23.9998 16.9048Z" fill="#00B1FF"/>
<path d="M24 60.0001C12.8233 60.0001 0 58.1564 0 43.7688C0 37.4127 2.59367 30.3747 6.92783 24.9278C11.6801 18.9589 17.7462 15.6672 24 15.6672C30.2538 15.6672 36.3114 18.9589 41.0722 24.9278C45.4149 30.3747 48 37.4211 48 43.7688C48 58.1564 35.1767 60.0001 24 60.0001ZM24 18.1507C12.0981 18.1507 2.51689 32.1679 2.51689 43.7688C2.51689 53.4082 8.94134 57.5165 24 57.5165C39.0587 57.5165 45.4831 53.4082 45.4831 43.7688C45.4831 32.1679 35.9019 18.1507 24 18.1507Z" fill="#0757A0"/>
<path d="M30.8084 17.5698H17.2002C15.0075 17.5698 13.2158 15.8103 13.2158 13.6383V12.8048C13.2158 10.6412 14.999 8.87329 17.2002 8.87329H30.8084C33.0011 8.87329 34.7928 10.6328 34.7928 12.8048V13.6383C34.7928 15.8019 33.0096 17.5698 30.8084 17.5698ZM17.1916 11.3652C16.3811 11.3652 15.7242 12.0135 15.7242 12.8132V13.6467C15.7242 14.4465 16.3811 15.0947 17.1916 15.0947H30.7999C31.6104 15.0947 32.2674 14.4465 32.2674 13.6467V12.8132C32.2674 12.0135 31.6104 11.3652 30.7999 11.3652H17.1916Z" fill="#0757A0"/>
<path d="M17.1914 8.88171H30.7996C33.0008 8.88171 34.784 10.6412 34.784 12.8132V13.6467C34.784 15.8187 33.0008 17.5782 30.7996 17.5782H17.1914C14.9902 17.5782 13.207 15.8187 13.207 13.6467V12.8132C13.207 10.6412 14.9902 8.88171 17.1914 8.88171Z" fill="#0757A0"/>
<path d="M17.1916 11.3652H30.7998C31.6104 11.3652 32.2673 12.0135 32.2673 12.8132V13.6467C32.2673 14.4465 31.6104 15.0947 30.7998 15.0947H17.1916C16.3811 15.0947 15.7241 14.4465 15.7241 13.6467V12.8132C15.7241 12.0135 16.3811 11.3652 17.1916 11.3652Z" fill="white"/>
<path d="M31.6618 11.0285H17.0212C16.4666 11.0285 15.9718 10.6665 15.8182 10.1361L14.2995 5.05967C13.8474 3.55273 14.3166 1.97843 15.5281 0.959772C16.7311 -0.0673082 18.3778 -0.294613 19.8196 0.370464L24.478 2.50881L28.8122 0.471488C30.254 -0.210426 31.9092 0.00845999 33.1293 1.02712C34.3493 2.0542 34.8186 3.6285 34.3664 5.14386L32.8733 10.1361C32.7197 10.6665 32.2249 11.0285 31.6703 11.0285H31.6618ZM17.9682 8.54501H30.7233L31.9519 4.43669C32.1225 3.86422 31.9519 3.30017 31.4912 2.91291C31.0304 2.52565 30.4332 2.44988 29.8957 2.70244L25.024 4.99232C24.6828 5.15228 24.2903 5.15228 23.949 4.99232L18.7532 2.60983C18.2071 2.35727 17.6184 2.44146 17.1662 2.82872C16.7141 3.21598 16.5434 3.78003 16.7141 4.3525L17.9682 8.53659V8.54501Z" fill="#0757A0"/>
<path d="M27.7539 35.5773C27.1994 34.6681 25.6124 33.9778 24.1364 33.9778C22.3618 33.9778 20.7322 34.4829 20.7322 35.9646C20.7322 37.3537 22.4215 37.6147 24.2218 37.8251C27.3444 38.204 30.6803 38.7512 30.6803 42.4638C30.6803 45.3093 28.2658 46.9173 25.6124 47.1025V49.2156H22.8993V47.212C20.5019 47.0015 18.2836 45.9239 17.2769 43.6004L19.8023 42.548C20.3824 43.895 22.285 44.7621 24.0597 44.7621C25.9878 44.7621 27.7625 44.1055 27.7625 42.4638C27.7625 41.0747 25.9878 40.5612 23.9999 40.3339C20.9455 39.9972 17.9509 39.4668 17.9509 35.9646C17.9509 33.2033 20.4336 31.9321 22.9164 31.6374V29.8021H25.6295V31.6374C27.4468 31.9152 29.119 32.5887 30.0746 34.525L27.7625 35.5773H27.7539Z" fill="white"/>
</g>
<defs>
<clipPath id="clip0_172_172">
<rect width="48" height="60" fill="white"/>
</clipPath>
</defs>
</svg>
