<svg width="37" height="58" viewBox="0 0 37 58" fill="none" xmlns="http://www.w3.org/2000/svg">
<g clip-path="url(#clip0_172_126)">
<path d="M12.1094 48.9177H24.8906V50.3202C24.8906 53.8686 22.027 56.7496 18.5 56.7496C14.973 56.7496 12.1094 53.8686 12.1094 50.3202V48.9177Z" fill="#00B1FF"/>
<path d="M25.512 45.6988H11.3536L11.236 45.6734C9.63207 45.3524 9.11982 44.0259 9.16181 43.1726C9.16181 41.6772 8.75872 37.5289 7.02881 35.6787C6.87765 35.5097 -5.72721 21.1132 3.20788 8.03467C3.40103 7.73052 8.43961 0.329497 18.374 0H18.5756C28.552 0.329497 33.5905 7.73052 33.8005 8.04312C42.7272 21.1132 30.1223 35.5097 29.988 35.6533C28.2244 37.5374 27.8382 41.7363 27.8382 43.198V43.4092L27.771 43.6119C27.116 45.4875 25.9823 45.6988 25.5204 45.6988H25.512ZM11.6391 43.198H25.2433C25.2769 43.1473 25.3189 43.0712 25.3609 42.9614C25.3944 41.7786 25.6632 36.6334 28.1657 33.9636C28.1741 33.9551 31.1048 30.6264 32.9775 25.9036C35.4212 19.7529 35.0097 14.2106 31.7515 9.44559C31.7011 9.36956 27.1663 2.77961 18.542 2.5008H18.4244C9.84201 2.78806 5.30729 9.36956 5.2653 9.43715C1.99862 14.2106 1.58714 19.7529 4.03085 25.9036C5.90352 30.6264 8.8343 33.9551 8.85949 33.9805C11.5971 36.9037 11.6475 42.86 11.6475 43.1895L11.6391 43.198Z" fill="#0757A0"/>
<path d="M26.7212 49.7287H10.2702C8.5151 49.7287 7.0791 48.2924 7.0791 46.5182C7.0791 44.744 8.5067 43.3077 10.2702 43.3077H26.7212C28.4763 43.3077 29.9123 44.744 29.9123 46.5182C29.9123 48.2924 28.4847 49.7287 26.7212 49.7287ZM10.2702 45.8085C9.88391 45.8085 9.5648 46.1296 9.5648 46.5182C9.5648 46.9069 9.88391 47.2279 10.2702 47.2279H26.7212C27.1075 47.2279 27.4266 46.9069 27.4266 46.5182C27.4266 46.1296 27.1075 45.8085 26.7212 45.8085H10.2702Z" fill="#0757A0"/>
<path d="M18.5002 57.9999C14.2929 57.9999 10.8667 54.5529 10.8667 50.3201V47.6672H26.1336V50.3201C26.1336 54.5529 22.7074 57.9999 18.5002 57.9999ZM13.3524 50.168V50.3201C13.3524 53.1758 15.6618 55.4991 18.5002 55.4991C21.3386 55.4991 23.6479 53.1758 23.6479 50.3201V50.168H13.3524Z" fill="#0757A0"/>
<path d="M16.7365 44.1189H14.2508V19.9558H13.0667C11.0429 19.9558 9.39697 18.2998 9.39697 16.2637C9.39697 14.2276 11.0429 12.5717 13.0667 12.5717C15.0906 12.5717 16.7365 14.2276 16.7365 16.2637V17.455H18.6344V19.9558H16.7365V44.1189ZM13.0667 15.0725C12.4117 15.0725 11.8827 15.6047 11.8827 16.2637C11.8827 16.9227 12.4117 17.455 13.0667 17.455H14.2508V16.2637C14.2508 15.6047 13.7218 15.0725 13.0667 15.0725Z" fill="#0757A0"/>
<path d="M22.741 44.1189H20.2553V19.9558H18.3574V17.455H20.2553V16.2637C20.2553 14.2276 21.9012 12.5717 23.9251 12.5717C25.9489 12.5717 27.5948 14.2276 27.5948 16.2637C27.5948 18.2998 25.9489 19.9558 23.9251 19.9558H22.741V44.1189ZM22.741 17.455H23.9251C24.5801 17.455 25.1091 16.9227 25.1091 16.2637C25.1091 15.6047 24.5801 15.0725 23.9251 15.0725C23.27 15.0725 22.741 15.6047 22.741 16.2637V17.455Z" fill="#0757A0"/>
</g>
<defs>
<clipPath id="clip0_172_126">
<rect width="37" height="58" fill="white"/>
</clipPath>
</defs>
</svg>
