<svg width="68" height="48" viewBox="0 0 68 48" fill="none" xmlns="http://www.w3.org/2000/svg">
<g clip-path="url(#clip0_172_144)">
<path d="M46.7846 1.43835C55.9009 1.43835 63.2958 8.83905 63.2958 17.9624C63.2958 22.1603 61.7333 25.9903 59.1513 28.9004L65.1926 34.8209C65.1926 34.8209 58.7836 36.5269 52.007 33.6335C50.3609 34.1854 48.6062 34.4864 46.7846 34.4864C37.6684 34.4864 30.2734 27.0857 30.2734 17.9624C30.2734 8.83905 37.66 1.43835 46.7846 1.43835Z" fill="#00B1FF"/>
<path d="M60.5131 36.7693C58.1149 36.7693 55.0901 36.4181 51.9399 35.1721C50.2604 35.6739 48.5308 35.9331 46.776 35.9331C36.8827 35.9331 28.8276 27.8718 28.8276 17.9707C28.8276 8.06969 36.8827 0 46.7844 0C56.6861 0 64.7328 8.06132 64.7328 17.9624C64.7328 21.8843 63.4543 25.6808 61.098 28.7916L67.9999 35.5568L65.56 36.2091C65.4096 36.2509 63.4209 36.761 60.5131 36.761V36.7693ZM52.0736 32.1031L52.575 32.3206C56.2432 33.8843 59.8028 34.0014 62.1341 33.8341L57.1874 28.9756L58.0899 27.9554C60.5298 25.1958 61.8667 21.6502 61.8667 17.9707C61.8667 9.65017 55.1068 2.88502 46.7927 2.88502C38.4787 2.88502 31.7188 9.65017 31.7188 17.9707C31.7188 26.2913 38.4787 33.0564 46.7927 33.0564C48.4138 33.0564 50.0181 32.7972 51.5639 32.2787L52.082 32.1031H52.0736Z" fill="#0757A0"/>
<path d="M24.3406 6.92407C13.6702 6.92407 5.03022 15.5791 5.03022 26.2495C5.03022 31.1582 6.86016 35.6321 9.87662 39.0439L2.81592 45.968C2.81592 45.968 10.3111 47.9666 18.2408 44.5798C20.1627 45.2237 22.2182 45.5749 24.349 45.5749C35.0194 45.5749 43.6594 36.9199 43.6594 26.2495C43.6594 15.5791 35.0111 6.92407 24.349 6.92407H24.3406Z" fill="white"/>
<path d="M24.3408 6.92407C23.2295 6.92407 22.1432 7.02442 21.082 7.20003C30.1983 8.75543 37.1336 16.683 37.1336 26.2495C37.1336 35.8161 30.1983 43.7436 21.082 45.299C22.1432 45.483 23.2295 45.5749 24.3408 45.5749C35.0113 45.5749 43.6512 36.9199 43.6512 26.2495C43.6512 15.5791 35.0029 6.92407 24.3408 6.92407Z" fill="#00B1FF"/>
<path d="M8.27236 48C4.90495 48 2.60708 47.4063 2.43161 47.3645L-0.00830078 46.7122L7.91306 38.9436C5.11384 35.3143 3.58472 30.8571 3.58472 26.2495C3.58472 14.8014 12.8932 5.48572 24.3323 5.48572C35.7715 5.48572 45.0799 14.8014 45.0799 26.2495C45.0799 37.6976 35.7715 47.0132 24.3323 47.0132C22.2768 47.0132 20.2463 46.7122 18.2827 46.1101C14.6061 47.5819 11.0716 47.9916 8.27236 47.9916V48ZM5.84916 44.9979C8.58153 45.2571 13.0686 45.2237 17.6643 43.2669L18.1657 43.0495L18.6838 43.2251C20.5137 43.8355 22.4188 44.145 24.3407 44.145C34.2006 44.145 42.2222 36.1171 42.2222 26.2495C42.2222 16.3819 34.2006 8.35401 24.3407 8.35401C14.4808 8.35401 6.45914 16.3819 6.45914 26.2495C6.45914 30.6146 8.04675 34.8209 10.9379 38.0906L11.8403 39.1108L5.8408 44.9896L5.84916 44.9979Z" fill="#0757A0"/>
<path d="M18.3242 26.1659C18.3242 27.2112 17.4803 28.0558 16.4358 28.0558C15.3913 28.0558 14.5474 27.2112 14.5474 26.1659C14.5474 25.1206 15.3913 24.276 16.4358 24.276C17.4803 24.276 18.3242 25.1206 18.3242 26.1659Z" fill="#0757A0"/>
<path d="M26.4126 26.1659C26.4126 27.2112 25.5686 28.0558 24.5242 28.0558C23.4797 28.0558 22.6357 27.2112 22.6357 26.1659C22.6357 25.1206 23.4797 24.276 24.5242 24.276C25.5686 24.276 26.4126 25.1206 26.4126 26.1659Z" fill="#0757A0"/>
<path d="M33.9077 26.1659C33.9077 27.2112 33.0638 28.0558 32.0193 28.0558C30.9748 28.0558 30.1309 27.2112 30.1309 26.1659C30.1309 25.1206 30.9748 24.276 32.0193 24.276C33.0638 24.276 33.9077 25.1206 33.9077 26.1659Z" fill="#0757A0"/>
</g>
<defs>
<clipPath id="clip0_172_144">
<rect width="68" height="48" fill="white"/>
</clipPath>
</defs>
</svg>
