<svg width="77" height="88" viewBox="0 0 77 88" fill="none" xmlns="http://www.w3.org/2000/svg">
<g clip-path="url(#clip0_221_1745)">
<path d="M69.8535 28.7178V33.7176C69.8535 43.4661 68.2043 51.9834 64.9434 59.0435C62.3446 64.6841 58.7089 69.4076 54.1611 73.0884C46.5023 79.2817 38.981 80.3495 38.5062 80.4248C38.019 80.362 30.4976 79.2817 22.8514 73.0884C18.3036 69.4076 14.6679 64.6841 12.0691 59.0435C8.80821 51.9834 7.15901 43.4661 7.15901 33.7176V21.934L38.5062 7.98972L58.3716 16.8211L64.0688 11.369L38.5062 0L0 17.1352V32.9764C0 44.1445 1.92406 53.9809 5.70972 62.1967C8.8207 68.9427 13.1686 74.5959 18.6409 79.0178C28.0114 86.593 37.4942 87.8744 37.894 87.9246L38.4938 88L39.0935 87.9246C39.4933 87.8744 48.9762 86.593 58.3466 79.0178C63.8189 74.5959 68.1668 68.9302 71.2778 62.1967C75.0634 53.9809 76.9875 44.1445 76.9875 32.9764V17.5497L69.841 28.7303L69.8535 28.7178Z" fill="#00B1FF"/>
<path d="M74.6384 12.0097L43.0163 61.4429C41.0798 64.4705 36.7319 64.6212 34.6079 61.7193L14.4427 34.4336C13.5557 33.2276 14.8925 31.6448 16.2169 32.3232L37.7814 43.4032L72.4645 10.2258C73.6764 9.07005 75.5255 10.6027 74.6259 12.0222L74.6384 12.0097Z" fill="#00B1FF"/>
<path d="M76.9996 17.5372V32.9639C76.9996 44.1319 75.0756 53.9684 71.2899 62.1842C68.1789 68.9302 63.831 74.5833 58.3587 79.0053C48.9883 86.5805 39.5054 87.8619 39.1056 87.9121L38.5059 87.9875V80.4249C38.9806 80.3621 46.502 79.2817 54.1607 73.0884C58.7085 69.4076 62.3442 64.6841 64.943 59.0436C68.2039 51.9835 69.8531 43.4661 69.8531 33.7177V28.7178L76.9996 17.5372Z" fill="#0757A0"/>
<path d="M64.0559 11.369L58.3587 16.8211L38.5059 7.98972V0L64.0559 11.369Z" fill="#0757A0"/>
</g>
<defs>
<clipPath id="clip0_221_1745">
<rect width="77" height="88" fill="white"/>
</clipPath>
</defs>
</svg>
