<svg width="75" height="63" viewBox="0 0 75 63" fill="none" xmlns="http://www.w3.org/2000/svg">
<g clip-path="url(#clip0_221_1735)">
<path d="M72.6132 43.9127C72.6132 43.9127 77.0009 48.7584 72.5048 54.1586C72.5048 54.1586 75.3013 62.1383 65.1398 62.1383L40.3808 62.0781C38.5607 62.0781 36.7888 61.5115 35.3061 60.4628C33.4618 59.161 31.268 58.4619 29.0139 58.4619H5.72559V29.5684L14.1031 29.7372C20.7931 29.8698 27.254 27.3505 32.0515 22.6977C36.7646 18.1292 42.1407 11.62 44.7926 3.85725C45.6002 1.51877 47.8543 -0.012085 50.3254 -0.012085C53.6161 -0.012085 56.1957 2.6639 56.1957 5.82205C56.1957 6.15956 56.1595 6.50913 56.0993 6.8587C55.5568 9.90836 55.2675 13.404 55.0988 16.1764C54.9421 18.8524 57.0636 22.107 59.7396 22.107H68.0809C71.5525 22.107 74.566 24.783 74.6865 28.2545C74.7347 29.8457 74.2767 31.4489 72.782 32.7266C72.782 32.7266 77.8808 37.8616 72.6012 43.9006L72.6132 43.9127Z" fill="#00B1FF"/>
<path d="M71.9262 54.2309C70.9257 55.6292 68.9368 56.7502 65.1398 56.7502L40.3808 56.6899C38.5607 56.6899 36.7887 56.1234 35.3061 55.0747C33.4618 53.7729 31.268 53.0737 29.0139 53.0737H5.72559V58.4619H29.0139C31.268 58.4619 33.4618 59.161 35.3061 60.4628C36.7887 61.5115 38.5607 62.0781 40.3808 62.0781L65.1398 62.1383C74.7468 62.1383 72.7699 55.0024 72.5289 54.2309H71.9262Z" fill="#0757A0"/>
<path d="M16.6948 27.4711H2.4108C1.07935 27.4711 0 28.5504 0 29.8819V58.3775C0 59.709 1.07935 60.7883 2.4108 60.7883H16.6948C18.0262 60.7883 19.1056 59.709 19.1056 58.3775V29.8819C19.1056 28.5504 18.0262 27.4711 16.6948 27.4711Z" fill="white"/>
<path d="M16.6827 53.58H2.4108C1.08486 53.58 0 52.5072 0 51.1692V58.3654C0 59.7034 1.08486 60.7762 2.4108 60.7762H16.6827C18.0207 60.7762 19.0935 59.6914 19.0935 58.3654V51.1692C19.0935 52.5072 18.0087 53.58 16.6827 53.58Z" fill="#0757A0"/>
</g>
<defs>
<clipPath id="clip0_221_1735">
<rect width="75" height="62.1384" fill="white"/>
</clipPath>
</defs>
</svg>
