<svg width="93" height="60" viewBox="0 0 93 60" fill="none" xmlns="http://www.w3.org/2000/svg">
<g clip-path="url(#clip0_221_1736)">
<path d="M46.5 60C72.1812 60 93 46.5685 93 30C93 13.4315 72.1812 0 46.5 0C20.8188 0 0 13.4315 0 30C0 46.5685 20.8188 60 46.5 60Z" fill="#0757A0"/>
<path d="M46.5005 50.3176C63.896 50.3176 77.998 41.2211 77.998 30C77.998 18.7789 63.896 9.68237 46.5005 9.68237C29.1048 9.68237 15.0029 18.7789 15.0029 30C15.0029 41.2211 29.1048 50.3176 46.5005 50.3176Z" fill="white"/>
<path d="M15.0029 30C15.0029 30.8914 15.126 31.7674 15.2953 32.6281C17.2956 22.6537 30.4824 14.9385 46.5005 14.9385C62.5185 14.9385 75.7053 22.6537 77.7056 32.6281C77.8749 31.7674 77.998 30.8914 77.998 30C77.998 18.7807 63.9033 9.68237 46.5005 9.68237C29.0976 9.68237 15.0029 18.7807 15.0029 30Z" fill="#00B1FF"/>
<path d="M55.117 41.2347C50.3623 45.9837 42.638 45.9837 37.8834 41.2347C33.1287 36.4857 33.1287 28.7705 37.8834 24.0216C42.638 19.2726 50.3623 19.2726 55.117 24.0216C59.8716 28.7705 59.8716 36.4857 55.117 41.2347Z" fill="#0757A0"/>
<path d="M52.1163 38.2378C49.0081 41.3423 43.9765 41.3423 40.8683 38.2378C37.7601 35.1333 37.7601 30.1077 40.8683 27.0032C43.9765 23.8987 49.0081 23.8987 52.1163 27.0032C55.2245 30.1077 55.2245 35.1333 52.1163 38.2378Z" fill="white"/>
<path d="M52.1167 27.0031C51.8551 26.7418 51.5782 26.4959 51.2858 26.2808C53.64 29.3853 53.4092 33.8422 50.5626 36.6855C47.716 39.5287 43.2691 39.7592 40.1455 37.4078C40.3609 37.6998 40.6071 37.9765 40.8687 38.2377C43.9769 41.3422 49.0085 41.3422 52.1167 38.2377C55.2249 35.1332 55.2249 30.1076 52.1167 27.0031Z" fill="#00B1FF"/>
</g>
<defs>
<clipPath id="clip0_221_1736">
<rect width="93" height="60" fill="white"/>
</clipPath>
</defs>
</svg>
