<svg width="19" height="26" viewBox="0 0 19 26" fill="none" xmlns="http://www.w3.org/2000/svg">
<g clip-path="url(#clip0_194_1047)">
<path d="M9.5 0C4.25884 0 0 4.09756 0 9.14024C0 10.8415 0.487992 12.5061 1.41961 13.9451L8.96131 25.6402C9.10707 25.8659 9.36057 26 9.63309 26C9.91194 26 10.1654 25.8598 10.3049 25.628L17.6564 13.8232C18.531 12.4146 18.9937 10.7927 18.9937 9.14024C19 4.09756 14.7412 0 9.5 0ZM16.3002 13.0427L9.62041 23.7744L2.76318 13.1463C1.98999 11.9451 1.57171 10.561 1.57171 9.14024C1.57171 4.93902 5.13342 1.5122 9.5 1.5122C13.8666 1.5122 17.4219 4.93902 17.4219 9.14024C17.4219 10.5183 17.029 11.8659 16.3002 13.0427Z" fill="white"/>
<path d="M9.49976 4.57324C6.88235 4.57324 4.75293 6.62202 4.75293 9.14032C4.75293 11.6586 6.85066 13.7135 9.49976 13.7135C12.1489 13.7135 14.2529 11.622 14.2529 9.14032C14.2529 6.65861 12.1235 4.57324 9.49976 4.57324ZM9.49976 12.1952C7.74426 12.1952 6.32464 10.8232 6.32464 9.14032C6.32464 7.45739 7.75693 6.08544 9.49976 6.08544C11.2426 6.08544 12.6749 7.46349 12.6749 9.14032C12.6749 10.8171 11.287 12.1952 9.49976 12.1952Z" fill="white"/>
</g>
<defs>
<clipPath id="clip0_194_1047">
<rect width="19" height="26" fill="white"/>
</clipPath>
</defs>
</svg>
