<svg width="20" height="23" viewBox="0 0 20 23" fill="none" xmlns="http://www.w3.org/2000/svg">
<g clip-path="url(#clip0_194_1044)">
<path d="M7.487 11.3855C8.86282 12.2766 10.5543 12.3729 12.1267 11.6444C12.4602 11.4878 12.6091 11.0905 12.4542 10.7533C12.2994 10.4161 11.9063 10.2656 11.5728 10.4221C10.4233 10.958 9.19635 10.8978 8.20767 10.2535C7.24281 9.62737 6.66509 8.56768 6.66509 7.41166C6.66509 5.55119 8.16002 4.03994 10.0004 4.03994C11.8408 4.03994 13.3357 5.55119 13.3357 7.41166C13.3357 7.78496 13.0379 8.08601 12.6687 8.08601C12.3351 8.08601 12.0195 7.82711 12.0016 7.42371C12.0016 7.42371 12.0016 7.41768 12.0016 7.41166C12.0016 6.29779 11.1023 5.38863 10.0004 5.38863C8.89856 5.38863 7.99921 6.29779 7.99921 7.41166C7.99921 8.52554 8.89856 9.4347 10.0004 9.4347C10.5126 9.4347 10.9772 9.24203 11.3345 8.9169C11.6859 9.23601 12.1564 9.4347 12.6687 9.4347C13.7705 9.4347 14.6698 8.52554 14.6698 7.41166C14.6698 4.81062 12.5793 2.69727 10.0004 2.69727C7.42149 2.69727 5.33691 4.81062 5.33691 7.41166C5.33691 9.02528 6.14096 10.5124 7.49296 11.3855H7.487ZM10.0004 8.08601C9.63114 8.08601 9.33334 7.78496 9.33334 7.41166C9.33334 7.03837 9.63114 6.73732 10.0004 6.73732C10.3399 6.73732 10.6258 6.99622 10.6615 7.33339C10.6496 7.3936 10.6496 7.45983 10.6615 7.52004C10.6079 7.83915 10.3339 8.08601 10.0064 8.08601H10.0004Z" fill="white"/>
<path d="M20 8.85079C20 8.67618 19.9285 8.50157 19.8035 8.37513L17.3317 5.87644V0.674346C17.3317 0.301047 17.0339 0 16.6647 0H3.33532C2.96605 0 2.66825 0.301047 2.66825 0.674346V5.87644L0.196546 8.37513C0.196546 8.37513 0.196546 8.37513 0.19059 8.38115C0.0655152 8.51361 0 8.6822 0 8.85079V20.983C0 22.0969 0.899345 23.006 2.00119 23.006H17.9988C19.1007 23.006 20 22.0969 20 20.983V8.85079ZM18.3919 8.85079L17.3377 9.91649V7.77906L18.3919 8.84476V8.85079ZM15.9976 1.34869V6.1534V11.2652L12.3883 14.9139H7.60572L3.99643 11.2652V6.1534V1.34869H15.9976ZM2.66825 9.91649L1.61406 8.85079L2.66825 7.78508V9.92251V9.91649ZM1.33413 20.7V10.4764L6.39071 15.5882L1.33413 20.7ZM2.27516 21.6573L7.60572 16.2686H12.3883L17.7189 21.6573H2.27516ZM18.6659 20.7L13.6093 15.5882L18.6659 10.4764V20.7Z" fill="white"/>
</g>
<defs>
<clipPath id="clip0_194_1044">
<rect width="20" height="23" fill="white"/>
</clipPath>
</defs>
</svg>
