<svg width="24" height="24" viewBox="0 0 24 24" fill="none" xmlns="http://www.w3.org/2000/svg">
<g clip-path="url(#clip0_194_1042)">
<path d="M23.3869 17.7062L20.4039 14.7232C19.5808 13.9001 18.2441 13.9001 17.4209 14.7232L16.0656 16.0786C15.4405 16.7036 14.4256 16.7036 13.8067 16.0786L7.92739 10.193C7.30233 9.56798 7.30233 8.55921 7.92739 7.93415C8.144 7.71754 8.77525 7.08629 9.28273 6.57881C10.0996 5.7619 10.112 4.42512 9.28273 3.59583L6.29356 0.619038C5.47046 -0.204067 4.13368 -0.204067 3.31058 0.619038C2.69789 1.22554 2.49985 1.42358 2.22136 1.69588C-0.743057 4.6603 -0.743057 9.48753 2.22136 12.4581L11.5354 21.7784C14.506 24.749 19.3209 24.7552 22.2977 21.7784L23.3807 20.6954C24.2038 19.8723 24.2038 18.5355 23.3807 17.7124L23.3869 17.7062ZM19.4075 15.7134L22.3905 18.6964C22.6628 18.9687 22.6628 19.4143 22.3905 19.6928L21.8954 20.1879L17.916 16.2085L18.4111 15.7134C18.6835 15.4411 19.129 15.4411 19.4075 15.7134ZM5.29717 1.61543L8.28015 4.59222C8.55246 4.86453 8.55246 5.31012 8.28015 5.58861L7.78505 6.08371L3.81187 2.10434L4.30697 1.61543C4.57927 1.34312 5.02487 1.34312 5.30336 1.61543H5.29717ZM12.5318 20.7758L3.21775 11.4556C0.921719 9.15952 0.797944 5.55767 2.82786 3.11311L6.79485 7.0801C5.75514 8.26215 5.79846 10.0631 6.92481 11.1894L12.8041 17.0749C13.9305 18.2013 15.7314 18.2508 16.9135 17.2049L20.8805 21.1719C18.4421 23.2018 14.8464 23.0966 12.538 20.782L12.5318 20.7758Z" fill="white"/>
</g>
<defs>
<clipPath id="clip0_194_1042">
<rect width="24" height="24" fill="white"/>
</clipPath>
</defs>
</svg>
