<svg width="39" height="39" viewBox="0 0 39 39" fill="none" xmlns="http://www.w3.org/2000/svg">
<path d="M19.2305 37.983C29.4433 37.983 37.7675 29.7041 37.8231 19.4915C37.8788 9.27893 29.6449 1 19.4322 1C9.21948 1 0.895286 9.27893 0.839598 19.4915C0.783911 29.7041 9.01781 37.983 19.2305 37.983Z" stroke="white" stroke-width="0.5" stroke-miterlimit="10"/>
<path fill-rule="evenodd" clip-rule="evenodd" d="M15.1573 9.92285H24.1997C27.1044 9.92285 29.4937 12.3179 29.4937 15.2296V24.2465C29.4937 27.1582 27.1044 29.5533 24.1997 29.5533H15.1573C12.2526 29.5533 9.86328 27.1582 9.86328 24.2465V15.2296C9.86328 12.3179 12.2526 9.92285 15.1573 9.92285ZM24.9489 13.3513C25.558 13.3513 26.0735 13.868 26.0735 14.4786C26.0735 15.0891 25.558 15.6058 24.9489 15.6058C24.2933 15.6058 23.8244 15.0891 23.8244 14.4786C23.8244 13.868 24.2926 13.3513 24.9489 13.3513ZM19.6549 14.384H19.7021C22.6068 14.384 25.0433 16.8263 25.0433 19.7381C25.0433 22.6964 22.6068 25.0921 19.7021 25.0921H19.6549C16.7502 25.0921 14.3609 22.6971 14.3609 19.7381C14.3609 16.8263 16.7502 14.384 19.6549 14.384ZM19.6549 16.2157H19.7021C21.6231 16.2157 23.2159 17.8124 23.2159 19.7381C23.2159 21.7103 21.6231 23.307 19.7021 23.307H19.6549C17.7339 23.307 16.1411 21.7103 16.1411 19.7381C16.1411 17.8124 17.7339 16.2157 19.6549 16.2157ZM15.2038 11.6134H24.1518C26.1665 11.6134 27.8058 13.2574 27.8058 15.2762V24.1992C27.8058 26.2187 26.1658 27.862 24.1518 27.862H15.2038C13.1891 27.862 11.5498 26.218 11.5498 24.1992V15.2762C11.5498 13.2567 13.1898 11.6134 15.2038 11.6134Z" fill="white"/>
</svg>
