<svg width="39" height="39" viewBox="0 0 39 39" fill="none" xmlns="http://www.w3.org/2000/svg">
<path d="M19.3057 37.983C29.5185 37.983 37.8427 29.7041 37.8983 19.4915C37.954 9.27893 29.7201 1 19.5074 1C9.29467 1 0.970481 9.27893 0.914794 19.4915C0.859106 29.7041 9.09301 37.983 19.3057 37.983Z" stroke="white" stroke-width="0.5" stroke-miterlimit="10"/>
<path fill-rule="evenodd" clip-rule="evenodd" d="M10.2883 15.929H13.8315V27.7687H10.2883V15.929ZM12.0382 9.92285C13.2192 9.92285 14.1813 10.8802 14.1813 12.0556C14.1813 13.2309 13.2192 14.1883 12.0382 14.1883C10.8571 14.1883 9.93848 13.2309 9.93848 12.0556C9.93848 10.8802 10.8571 9.92285 12.0382 9.92285ZM15.9312 15.929H19.4302V17.5834C20.174 16.4951 21.3984 15.7988 22.7984 15.7988H23.7605C25.9911 15.7988 27.7843 17.6273 27.7843 19.8032V27.7687H24.2852V26.6804V21.3698C24.2412 20.0204 23.3232 18.976 21.9672 18.976C20.6113 18.976 19.4743 20.0204 19.4302 21.3698V27.7687H15.9312V15.929Z" fill="white"/>
</svg>
