<svg width="38" height="39" viewBox="0 0 38 39" fill="none" xmlns="http://www.w3.org/2000/svg">
<path d="M18.7686 37.983C28.9814 37.983 37.3055 29.7041 37.3612 19.4915C37.4169 9.27893 29.183 1 18.9703 1C8.75756 1 0.433372 9.27893 0.377684 19.4915C0.321997 29.7041 8.5559 37.983 18.7686 37.983Z" stroke="white" stroke-width="0.5" stroke-miterlimit="10"/>
<path fill-rule="evenodd" clip-rule="evenodd" d="M19.0869 17.8826C18.3057 14.1993 23.2528 12.0082 26.168 14.6658C26.168 14.6658 27.4695 14.3394 28.6151 13.6867C28.6151 13.6867 28.1985 14.9454 26.7927 15.7383C26.7927 15.7383 28.355 15.552 29.0318 15.179C29.0318 15.179 28.355 16.4377 27.105 16.9042C27.7818 25.3428 17.6282 30.4712 9.40137 26.2752C9.40137 26.2752 13.463 26.4614 15.1811 24.6901C15.1811 24.6901 12.6818 24.8763 11.4318 22.1727C11.4318 22.1727 12.3688 22.499 13.3064 22.0792C13.3064 22.0792 10.3905 21.6594 10.1303 18.536C10.1303 18.536 11.0673 19.1887 12.1093 18.9558C12.1093 18.9558 8.88106 17.2305 10.7035 14.1071C10.7035 14.1071 14.1405 18.0234 19.0869 17.8833V17.8826Z" fill="white"/>
</svg>
