<svg width="138" height="44" viewBox="0 0 138 44" fill="none" xmlns="http://www.w3.org/2000/svg">
<path d="M66.8438 9.67998V24.64C66.8438 34.1 59.7282 37.18 56.4938 38.06C55.6313 38.28 54.3376 37.84 53.9063 36.52C53.6907 35.42 54.3376 34.32 55.4157 33.88C58.6501 33 62.5313 30.58 62.5313 24.64V9.67998C62.5313 8.57998 63.3938 7.47998 64.6876 7.47998C65.7657 7.47998 66.8438 8.35998 66.8438 9.67998ZM30.8345 27.94C31.697 29.7 29.972 32.12 27.8157 30.8C27.8157 30.8 19.622 25.3 13.5845 22.88L9.91884 29.92C9.70321 30.58 8.19384 31.68 6.90009 30.8C-3.23429 24.86 -1.29366 13.2 11.4282 17.16L16.6032 7.03998C17.6813 5.27998 19.8376 5.71998 20.4845 7.03998L30.8345 27.94ZM9.48759 21.34C1.29384 18.92 5.60634 24.64 7.33134 25.74L9.48759 21.34ZM23.5032 22.88L18.3282 12.98L15.5251 18.92C17.4657 19.58 21.7782 22 23.5032 22.88ZM55.847 19.14C55.847 25.74 50.672 31.02 44.2032 31.02H37.3032C36.0095 31.02 35.147 29.92 35.147 28.82V9.67998C35.147 8.35998 36.2251 7.47998 37.3032 7.47998H44.2032C50.672 7.47998 55.847 12.76 55.847 19.14ZM51.5345 19.14C51.5345 15.18 48.3001 11.88 44.4188 11.88H39.6751V26.62H44.4188C48.3001 26.62 51.5345 23.32 51.5345 19.14ZM89.4845 9.67998V20.68C89.4845 24.2 87.1126 26.62 83.6626 26.62C80.2126 26.62 77.8407 24.2 77.8407 20.68V9.67998C77.8407 6.81998 73.5282 6.81998 73.5282 9.67998V20.68C73.5282 26.62 77.8407 31.02 83.6626 31.02C89.4845 31.02 93.797 26.62 93.797 20.68V9.67998C93.797 6.81998 89.4845 6.81998 89.4845 9.67998ZM135.628 7.47998H119.672C116.869 7.47998 116.869 11.88 119.672 11.88H125.494V28.82C125.494 31.68 129.806 31.68 129.806 28.82V11.88H135.628C138.647 11.88 138.647 7.47998 135.628 7.47998ZM102.422 13.2C102.638 11.22 106.519 10.12 109.753 12.98C111.909 14.74 114.713 12.1 112.772 9.67998C109.106 5.49998 98.1095 5.71998 98.1095 13.64C98.1095 22 110.831 20.24 109.538 25.08C108.891 27.28 103.931 28.16 101.559 24.86C99.6188 22 96.1688 24.86 97.8938 27.28C102.853 34.54 114.066 31.46 114.066 24.42C114.066 16.28 102.206 17.82 102.422 13.2Z" fill="black"/>
</svg>
