<svg width="104" height="48" viewBox="0 0 104 48" fill="none" xmlns="http://www.w3.org/2000/svg">
<g clip-path="url(#clip0_192_553)">
<mask id="mask0_192_553" style="mask-type:luminance" maskUnits="userSpaceOnUse" x="0" y="0" width="104" height="48">
<path d="M104 0H0V48H104V0Z" fill="white"/>
</mask>
<g mask="url(#mask0_192_553)">
<path d="M52.3999 47.0357L31.548 0L10.7568 47.0357H17.8938L31.6367 15.7714L38.6076 32.0245H28.2887L25.1331 39.5301H41.8813L45.2741 47.0357H52.3999Z" fill="black"/>
<path d="M76.0018 24.8558C74.114 22.3844 71.4699 20.6221 68.5532 19.8936C68.1186 19.7924 64.2841 18.895 63.3621 18.6174C61.254 17.9826 59.7809 15.9385 59.7809 13.6468C59.7809 10.7982 61.9945 8.48058 64.7155 8.48058C66.4282 8.48058 68.0092 9.41817 68.9031 10.9144L76.0857 9.38891C74.3841 4.42504 69.7866 1.00513 64.7155 1.00513C58.0569 1.00513 52.6406 6.6757 52.6406 13.6468C52.6406 19.4495 56.2851 24.4619 61.5072 25.8369L61.7245 25.8904C62.4267 26.0636 64.7067 26.6265 66.874 27.1592C68.264 27.5063 69.5254 28.3469 70.4249 29.5236C71.3484 30.733 71.8373 32.1942 71.8373 33.7481C71.8373 34.086 71.8125 34.4272 71.759 34.7969L71.6871 35.1958C71.4323 36.4236 70.8539 37.5527 70.0151 38.4602C68.8535 39.7164 67.3045 40.4474 65.6197 40.5201L65.3585 40.5218C63.8151 40.5218 62.3156 39.9389 61.1357 38.88C60.7938 38.5731 60.487 38.226 60.2155 37.8497L52.8604 39.412C54.9365 44.4252 59.6179 47.8426 64.995 47.9931C65.0533 47.9948 65.2691 48.0015 65.3689 48.0015C72.3797 48.0015 78.3329 42.2741 78.9216 34.9641L78.9528 34.6079C78.9695 34.311 78.9783 34.0224 78.9783 33.7497C78.9783 30.5281 77.9214 27.37 76.0026 24.8575L76.0018 24.8558Z" fill="black"/>
<path d="M0 2.00293V9.52276H0.00159772V47.0355H7.1698V9.52276H7.17139V2.00293H0Z" fill="black"/>
<path d="M89.6463 39.53H82.4775V47.0356H89.6463V39.53Z" fill="#6EFF29"/>
<path d="M82.5 24.4958V32.0014H96.8311V47.036H104V24.5201L82.5 24.4958Z" fill="#6EFF29"/>
</g>
</g>
<defs>
<clipPath id="clip0_192_553">
<rect width="104" height="48" fill="white"/>
</clipPath>
</defs>
</svg>
