<?xml version="1.0" encoding="UTF-8"?><svg id="uuid-b54d0b95-0370-45c3-8606-3af7e4de4e2a" xmlns="http://www.w3.org/2000/svg" viewBox="0 0 1865.9 432.58"><g id="uuid-66512ba1-1a35-48b4-a66c-a229c742cbdd"><g><g><path d="M454.27,98.13c0-2.98,2.69-5.67,5.67-5.67h35.81c2.98,0,5.67,2.69,5.67,5.67v197.55c0,2.98-2.69,5.67-5.67,5.67h-35.81c-2.98,0-5.67-2.69-5.67-5.67V98.13h0Z" style="fill:#fff;"/><path d="M1293.19,177.18c5.16,2.58,12.26,6.93,16.24,10.74,12.83,13.01,19.25,28.64,19.25,46.89s-6.42,33.96-19.25,46.89c-12.83,13.1-28.38,19.65-46.62,19.65h-69.92c-4.71,0-8.53-3.82-8.53-8.53V98.75c0-4.71,3.82-8.53,8.53-8.53h50.41c16.33,0,30.3,5.85,41.91,17.55,11.18,11.35,16.76,24.75,16.76,40.21,0,10.12-4.87,22.26-8.77,29.21Zm-49.9-45.71h-16.63v37.71c3.75-.17,9.04,.4,15.85-.12,10.04-1.13,18.6-8.65,18.6-19.38,0-9.79-7.94-18.2-17.81-18.2Zm44.01,103.33c0-14.03-11.43-25.06-24.49-25.93-12.57-.69-23.45-.13-36.15-.13v51.21h36.15c13.77,0,24.49-11.37,24.49-25.15Z" style="fill:#fff;"/><path d="M542.77,94.84c0-2.98,2.69-5.37,5.67-5.37h4.48c2.98,0,5.07,2.09,7.46,4.48l114.59,110.11h.3V98.13c0-2.98,2.39-5.67,5.67-5.67h35.81c2.98,0,5.67,2.69,5.67,5.67v200.83c0,3.58-2.69,5.37-5.67,5.37h-2.98c-2.98,0-5.07-.9-7.46-3.28l-116.08-116.68h-.3v111.31c0,2.98-2.39,5.67-5.67,5.67h-35.51c-2.98,0-5.67-2.69-5.67-5.67l-.3-200.83Z" style="fill:#fff;"/><path d="M864.33,89.47c29.84,0,51.92,9.25,72.21,27.75,2.69,2.39,2.69,5.97,.3,8.36l-23.28,24.17c-2.09,2.09-5.37,2.09-7.46,0-12.24-10.74-25.67-15.22-40.29-15.22-33.72,0-58.49,28.05-58.49,61.47s25.07,60.58,58.79,60.58c16.41,0,29.24-5.07,39.99-14.33,2.09-1.79,5.97-1.79,7.76,.3l23.28,24.77c2.09,2.09,1.79,5.97-.3,8.06-20.29,19.7-45.96,28.95-72.51,28.95-59.68,0-107.73-47.45-107.73-107.13s48.05-107.72,107.73-107.72Z" style="fill:#fff;"/><path d="M968.37,98.13c0-2.98,2.69-5.67,5.67-5.67h36.71c3.28,0,5.67,2.69,5.67,5.67v124.44c0,21.78,15.52,34.02,36.7,34.02s37.3-12.24,37.3-34.02V98.13c0-2.98,2.39-5.67,5.67-5.67h36.71c2.98,0,5.67,2.69,5.67,5.67v126.82c0,45.36-38.2,79.38-85.34,79.38s-84.75-34.02-84.75-79.38V98.13Z" style="fill:#fff;"/><path d="M1367.67,98.13c0-2.98,2.39-5.67,5.67-5.67h114.24c.27,0,.54,.02,.8,.05,3.52,.49,5.38,4.5,3.9,7.73l-13.5,29.82c-1.73,3.81-5.52,6.26-9.71,6.26h-54.84v32.74h44.59c3.12,0,5.67,2.55,5.67,5.67v32.53c0,3.28-2.69,5.67-5.67,5.67h-44.59v44.55h82.66c3.28,0,5.67,2.69,5.67,5.67v32.53c0,2.98-2.39,5.67-5.67,5.67h-123.54c-3.28,0-5.67-2.69-5.67-5.67V98.13Z" style="fill:#fff;"/><path d="M1574.62,136.32h-46.94c-1.64,0-3.06-.67-4.07-1.72-1.44-1.49-1.67-3.79-.9-5.72l11.8-29.71c1.61-4.06,5.54-6.72,9.9-6.72h156.25c.27,0,.54,.02,.8,.05,3.57,.49,5.38,4.65,3.7,7.84l-13.07,29.62c-1.7,3.86-5.53,6.35-9.75,6.35h-60.59v159.35c0,3.12-2.55,5.67-5.67,5.67h-35.81c-3.12,0-5.67-2.55-5.67-5.67V136.32Z" style="fill:#fff;"/><path d="M1665.37,293.58l93.4-200.83c.9-1.79,2.98-3.28,5.07-3.28h2.98c2.09,0,4.18,1.49,5.07,3.28l93.4,200.83c1.79,3.88-.6,7.76-5.07,7.76h-33.12c-5.37,0-7.76-1.79-10.45-7.46l-10.74-23.58h-81.17l-10.74,23.87c-1.49,3.58-4.77,7.16-10.74,7.16h-32.83c-4.48,0-6.86-3.88-5.07-7.76Zm122.65-63.86l-22.68-49.24h-.3l-22.38,49.24h45.36Z" style="fill:#fff;"/></g><path d="M190.5,0C85.29,0,0,85.29,0,190.5s85.29,190.5,190.5,190.5,190.5-85.29,190.5-190.5S295.72,0,190.5,0ZM67.19,227.81h0c-12.09-12.09-12.09-31.89,0-43.98l94.69-94.69c12.09-12.09,31.89-12.09,43.98,0h0c12.09,12.09,12.09,31.89,0,43.98l-94.69,94.69c-12.09,12.09-31.89,12.09-43.98,0Zm203.98,67.54c-15.56,15.56-40.79,15.56-56.35,0s-15.56-40.79,0-56.35c15.56-15.56,40.79-15.56,56.35,0,15.56,15.56,15.56,40.79,0,56.35Zm32.88-157.94l-141.64,141.64c-12.09,12.09-31.89,12.09-43.98,0h0c-12.09-12.09-12.09-31.89,0-43.98L260.06,93.43c12.09-12.09,31.89-12.09,43.98,0h0c12.09,12.1,12.09,31.89,0,43.98Z" style="fill:#fff;"/></g><g><path d="M1367.59,432.58v-84.7h15.12l28.68,56.39,28.56-56.39h15.12v84.7h-12.83v-62.56l-25.89,50.46h-9.92l-26.01-50.34v62.44h-12.83Z" style="fill:#fff;"/><path d="M1526.7,432.58v-84.7h53.84v10.41h-41.02v26.38h37.39v10.16h-37.39v27.35h41.02v10.41h-53.84Z" style="fill:#fff;"/><path d="M1650.24,432.58v-84.7h12.83l42.47,63.77v-63.77h12.83v84.7h-12.83l-42.47-63.77v63.77h-12.83Z" style="fill:#fff;"/><path d="M1784.55,432.58l31.22-84.7h14.04l30.98,84.7h-13.55l-7.26-20.69h-34.61l-7.26,20.69h-13.55Zm24.44-30.86h27.35l-13.67-38.6-13.67,38.6Z" style="fill:#fff;"/></g></g></svg>