<svg width="100" height="100" viewBox="0 0 100 100" fill="none" xmlns="http://www.w3.org/2000/svg">
<g clip-path="url(#clip0_443_68)">
<path d="M47.8647 69.3297L31.3359 52.8057L24.8958 59.244L41.4245 75.768L47.8647 69.3297Z" fill="#00B1FF"/>
<path d="M3.73432 65.674C12.9846 51.7669 28.378 53.2488 28.378 53.2488L51.6819 24.3516C14.4527 17.9111 6.78449 45.1553 0 61.9264L3.73432 65.6597V65.674Z" fill="#00B1FF"/>
<path d="M34.3359 96.2667C48.247 87.0191 46.7647 71.6301 46.7647 71.6301L75.67 48.3328C82.0982 85.5514 54.8462 93.2174 38.0703 100L34.3359 96.2667Z" fill="#00B1FF"/>
<path d="M46.7506 71.6016C100.955 61.1998 100.285 7.43802 99.9433 0.0854966L99.9718 0.0569985C99.9718 0.0569985 99.9576 0.0569985 99.9433 0.0569985C99.9433 0.0569985 99.9433 0.0427494 99.9433 0.0285004L99.9148 0.0569985C92.5744 -0.284979 38.7831 -0.954684 28.3926 53.2345L46.7506 71.5874V71.6016Z" fill="white"/>
<path d="M99.9426 0.0854728L99.9711 0.0569747C99.9711 0.0569747 99.9568 0.0569747 99.9426 0.0569747C99.9426 0.0569747 99.9426 0.0427256 99.9426 0.0284765L99.914 0.0569747C99.0303 0.0142275 97.4625 -0.0285197 95.3673 0.0142275C95.0252 15.1752 89.7801 57.837 42.1318 66.9706L46.7499 71.5873C100.955 61.1997 100.285 7.43799 99.9426 0.0854728Z" fill="#0757A0"/>
<path d="M94.3704 33.2859C100.342 18.1248 100.1 3.64778 99.9434 0.0855116L99.9719 0.0570135C99.9719 0.0570135 99.9576 0.0570135 99.9434 0.0570135C99.9434 0.0570135 99.9434 0.0427644 99.9434 0.0285154L99.9149 0.0570135C96.3516 -0.113975 81.8704 -0.356209 66.7051 5.6284L94.3704 33.2859Z" fill="#00B1FF"/>
<path d="M76.839 43.6022C71.5226 48.9171 62.8994 48.9171 57.583 43.6022C52.2666 38.2873 52.2666 29.6666 57.583 24.3517C62.8994 19.0368 71.5226 19.0368 76.839 24.3517C82.1554 29.6666 82.1554 38.2873 76.839 43.6022Z" fill="#00B1FF"/>
<path d="M73.4896 40.2536C70.0261 43.7161 64.3961 43.7161 60.9326 40.2536C57.4691 36.7911 57.4691 31.1627 60.9326 27.7002C64.3961 24.2376 70.0261 24.2376 73.4896 27.7002C76.9531 31.1627 76.9531 36.7911 73.4896 40.2536Z" fill="white"/>
<path d="M73.4896 27.6859C73.1902 27.3867 72.8909 27.1302 72.5631 26.8737C75.1999 30.3505 74.9291 35.3234 71.7507 38.501C68.5722 41.6785 63.5979 41.935 60.1201 39.3132C60.3624 39.6409 60.6332 39.9401 60.9325 40.2393C64.3961 43.7019 70.026 43.7019 73.4896 40.2393C76.9531 36.7768 76.9531 31.1484 73.4896 27.6859Z" fill="#0757A0"/>
<path d="M30.0031 84.1978C20.2255 93.9726 9.20781 90.8521 9.20781 90.8521C9.20781 90.8521 5.78706 80.1368 15.864 70.0627C20.7814 65.1468 27.9364 64.3203 31.8418 68.2246C35.7472 72.1288 34.9205 79.2818 30.0031 84.1978Z" fill="#00B1FF"/>
<path d="M25.1146 81.7896C20.3826 86.5346 15.0377 85.0099 15.0377 85.0099C15.0377 85.0099 13.3843 79.8233 18.2589 74.9358C20.6392 72.5562 24.1027 72.1573 25.9983 74.0524C27.894 75.9475 27.4949 79.4101 25.1146 81.7896Z" fill="white"/>
</g>
<defs>
<clipPath id="clip0_443_68">
<rect width="100" height="100" fill="white"/>
</clipPath>
</defs>
</svg>
