<svg width="88" height="88" viewBox="0 0 88 88" fill="none" xmlns="http://www.w3.org/2000/svg">
<g clip-path="url(#clip0_214_1207)">
<path d="M63.8455 83.2558C85.5285 72.2934 94.2192 45.8291 83.2569 24.1461C72.2945 2.46316 45.8302 -6.22762 24.1472 4.73474C2.46425 15.6971 -6.22653 42.1614 4.73584 63.8444C15.6982 85.5274 42.1625 94.2182 63.8455 83.2558Z" fill="#00B1FF"/>
<path d="M55.4011 71.5304C70.607 65.2319 77.8279 47.7991 71.5294 32.5933C65.2309 17.3874 47.7982 10.1665 32.5923 16.465C17.3864 22.7635 10.1655 40.1962 16.464 55.4021C22.7625 70.608 40.1952 77.8289 55.4011 71.5304Z" fill="white"/>
<path d="M43.993 14.1917C42.6887 14.1917 41.4127 14.3051 40.1367 14.4611C54.7679 16.3467 66.0816 28.8371 66.0816 43.9787C66.0816 59.1203 54.7679 71.6107 40.1367 73.4963C41.3985 73.6665 42.6745 73.7657 43.993 73.7657C60.4531 73.7657 73.7942 60.4246 73.7942 43.9645C73.7942 27.5044 60.4531 14.1633 43.993 14.1633V14.1917Z" fill="#E5F7FF"/>
<path d="M47.5795 40.321H59.8714V47.4806H47.5795V60.0561H40.4199V47.4806H28.1279V40.321H40.4199V27.9298H47.5795V40.321Z" fill="#0757A0"/>
</g>
<defs>
<clipPath id="clip0_214_1207">
<rect width="88" height="88" fill="white"/>
</clipPath>
</defs>
</svg>
