<svg width="115" height="83" viewBox="0 0 115 83" fill="none" xmlns="http://www.w3.org/2000/svg">
<g clip-path="url(#clip0_214_1186)">
<path d="M41.8645 0C18.7824 0 0 18.6189 0 41.5C0 64.3811 18.7824 83 41.8645 83C64.9465 83 83.7289 64.3811 83.7289 41.5C83.7289 18.6189 64.9465 0 41.8645 0ZM41.8645 73.6485C23.9731 73.6485 9.43365 59.2216 9.43365 41.5C9.43365 23.7784 23.9731 9.35152 41.8645 9.35152C59.7559 9.35152 74.2953 23.7784 74.2953 41.5C74.2953 59.2216 59.7417 73.6485 41.8645 73.6485Z" fill="#00B1FF"/>
<path d="M41.8644 9.35156C23.973 9.35156 9.43359 23.7784 9.43359 41.5C9.43359 59.2217 23.9872 73.6485 41.8644 73.6485C59.7417 73.6485 74.2952 59.2217 74.2952 41.5C74.2952 23.7784 59.7417 9.35156 41.8644 9.35156ZM41.8644 64.311C29.1778 64.311 18.8531 54.0762 18.8531 41.5C18.8531 28.9239 29.1778 18.6891 41.8644 18.6891C54.551 18.6891 64.8757 28.9239 64.8757 41.5C64.8757 54.0762 54.551 64.311 41.8644 64.311Z" fill="white"/>
<path d="M41.8648 18.689C29.1782 18.689 18.8535 28.9238 18.8535 41.4999C18.8535 54.0761 29.1782 64.3109 41.8648 64.3109C54.5515 64.3109 64.8761 54.0761 64.8761 41.4999C64.8761 28.9238 54.5515 18.689 41.8648 18.689ZM41.8648 54.9594C34.3688 54.9594 28.2872 48.9307 28.2872 41.4999C28.2872 34.0692 34.3688 28.0405 41.8648 28.0405C49.3608 28.0405 55.4425 34.0692 55.4425 41.4999C55.4425 48.9307 49.3608 54.9594 41.8648 54.9594Z" fill="#00B1FF"/>
<path d="M54.4007 46.6742C57.2873 39.8136 54.0168 31.9323 47.0959 29.0709C40.175 26.2094 32.2245 29.4514 29.3379 36.3121C26.4513 43.1727 29.7218 51.054 36.6427 53.9155C43.5636 56.7769 51.5141 53.5349 54.4007 46.6742Z" fill="white"/>
<path d="M103.968 19.334L45.499 38.4997L46.7578 42.2852L105.227 23.1335L103.968 19.334Z" fill="#E5F7FF"/>
<path d="M103.841 19.376L82.7676 26.2459L87.1803 15.5905L108.254 8.73462L103.841 19.376Z" fill="#00B1FF"/>
<path d="M93.6295 13.5015L89.2168 24.1429L96.4158 21.8015L100.829 11.1461L93.6295 13.5015Z" fill="#0757A0"/>
<path d="M93.9262 35.99L115 29.1341L105.085 23.1475L84.0117 30.0034L93.9262 35.99Z" fill="#00B1FF"/>
<path d="M98.6355 25.2505L108.55 31.2371L101.365 33.5785L91.4365 27.5919L98.6355 25.2505Z" fill="#0757A0"/>
<path d="M44.382 30.2838L34.5947 44.0938L50.7323 49.4495L44.382 30.2838Z" fill="#00B1FF"/>
</g>
<defs>
<clipPath id="clip0_214_1186">
<rect width="115" height="83" fill="white"/>
</clipPath>
</defs>
</svg>
