<svg width="95" height="95" viewBox="0 0 95 95" fill="none" xmlns="http://www.w3.org/2000/svg">
<g clip-path="url(#clip0_214_1176)">
<path d="M65.9919 57.9877C82.0048 57.9877 94.9858 45.0067 94.9858 28.9939C94.9858 12.981 82.0048 0 65.9919 0C49.979 0 36.998 12.981 36.998 28.9939C36.998 45.0067 49.979 57.9877 65.9919 57.9877Z" fill="#00B1FF"/>
<path d="M65.9917 48.9192C76.9962 48.9192 85.917 39.9983 85.917 28.9938C85.917 17.9894 76.9962 9.06854 65.9917 9.06854C54.9873 9.06854 46.0664 17.9894 46.0664 28.9938C46.0664 39.9983 54.9873 48.9192 65.9917 48.9192Z" fill="#E5F7FF"/>
<path d="M85.9176 28.8378L47.3584 21.9264C48.3234 19.3576 49.842 16.9592 51.8998 14.9014C52.1127 14.6885 52.3113 14.4899 52.5242 14.3054L83.7178 19.8827C85.1512 22.6785 85.8892 25.744 85.9176 28.8236V28.8378Z" fill="#FDFFFF"/>
<path d="M80.0847 43.0864L80.0421 43.1289L47.9119 37.3671C46.3366 33.9468 45.7689 30.1718 46.2372 26.5103L85.4066 33.5211C84.5977 37.0264 82.8237 40.3473 80.0989 43.0864H80.0847Z" fill="#FDFFFF"/>
<path d="M41.5898 38.7386L56.2411 53.3899L50.6616 58.9694C48.8553 60.7757 45.925 60.7757 44.1187 58.9694L36.0103 50.861C34.204 49.0547 34.204 46.1244 36.0103 44.3181L41.5898 38.7386Z" fill="#00B1FF"/>
<path d="M44.3893 59.2464L35.749 50.6062L19.8132 66.542L28.4535 75.1822L44.3893 59.2464Z" fill="#FDFFFF"/>
<path d="M34.4701 69.6648L25.3382 60.5328C23.947 59.1417 21.6916 59.1417 20.3005 60.5328L1.05315 79.7802C-0.337956 81.1713 -0.337949 83.4267 1.05315 84.8178L10.1851 93.9498C11.5762 95.3409 13.8316 95.3409 15.2227 93.9498L34.4701 74.7024C35.8612 73.3113 35.8612 71.0559 34.4701 69.6648Z" fill="#00B1FF"/>
<path d="M34.4577 69.6534L30.8813 66.0771C32.2721 67.4679 32.2721 69.7244 30.8813 71.1294L11.6372 90.3735C10.2464 91.7643 7.98995 91.7643 6.58496 90.3735L10.1613 93.9498C11.5521 95.3406 13.8086 95.3406 15.2136 93.9498L34.4577 74.7057C35.8485 73.3149 35.8485 71.0584 34.4577 69.6534Z" fill="#0757A0"/>
</g>
<defs>
<clipPath id="clip0_214_1176">
<rect width="95" height="95" fill="white"/>
</clipPath>
</defs>
</svg>
